<svg width="32" height="32" viewBox="0 0 32 32" fill="none" xmlns="http://www.w3.org/2000/svg">
<path d="M28.3027 8.05879C27.3654 8.52924 26.3487 8.86463 25.2738 9.04383C26.3464 8.33128 27.1436 7.24495 27.484 5.9777C26.4805 6.6388 25.3585 7.13699 24.1525 7.43412C23.1296 6.44172 21.7105 5.85781 20.1739 5.92995C17.2239 6.06845 14.9443 8.57259 15.0829 11.5231C15.1025 11.9413 15.1687 12.3466 15.2785 12.734C10.8279 12.7194 6.7912 10.7777 4.00446 7.66913C3.58162 8.47936 3.36147 9.40934 3.40748 10.3893C3.49448 12.2426 4.51426 13.8337 5.99274 14.7242C5.11609 14.7373 4.28074 14.5355 3.54149 14.1692C3.54201 14.1914 3.54308 14.2141 3.54414 14.2368C3.66564 16.8248 5.60858 18.8971 8.07583 19.2739C7.6333 19.4165 7.16435 19.5042 6.677 19.5271C6.33236 19.5433 5.9962 19.5257 5.66711 19.4781C6.44704 21.5684 8.49225 23.0209 10.8317 22.9539C9.07057 24.4728 6.80763 25.4351 4.30426 25.5526C3.87346 25.5728 3.44676 25.5674 3.02632 25.5374C5.4624 26.9429 8.31173 27.6948 11.3284 27.5532C21.1553 27.0918 26.1461 18.6994 25.8147 11.6396C25.8038 11.4081 25.7882 11.1773 25.7674 10.9484C26.7755 10.1478 27.6373 9.16383 28.3027 8.05879Z" fill="black"/>
</svg>
